<svg version="1.1" id="Layer_1" xmlns="http://www.w3.org/2000/svg" xmlns:xlink="http://www.w3.org/1999/xlink" x="0px" y="0px"
	 width="100%" viewBox="0 0 512 512" enable-background="new 0 0 512 512" xml:space="preserve">
<path fill="#000000" opacity="1.000000" stroke="none" 
	d="
M513.000000,196.000000 
	C513.000000,301.974243 513.000000,407.448486 513.000000,512.961365 
	C342.400757,512.961365 171.801483,512.961365 1.101111,512.961365 
	C1.101111,342.442444 1.101111,171.884827 1.101111,1.163595 
	C171.666534,1.163595 342.333252,1.163595 513.000000,1.163595 
	C513.000000,65.865143 513.000000,130.682571 513.000000,196.000000 
M289.219055,13.019075 
	C288.160309,12.974439 287.101593,12.929801 285.588470,12.169282 
	C283.110077,12.096715 280.631470,11.954823 278.153320,11.962971 
	C263.434998,12.011354 248.716782,12.094473 233.119324,12.021396 
	C231.454239,12.028424 229.724167,11.739507 228.134186,12.088601 
	C213.451111,15.312428 198.710342,18.324308 184.145920,22.025627 
	C163.438522,27.288082 144.505829,36.781612 126.509331,48.075527 
	C106.146767,60.854301 87.893684,76.109604 71.984833,94.303734 
	C59.162266,108.968231 48.221889,124.823318 39.100178,141.910767 
	C28.477833,161.809357 20.594433,182.841507 16.152189,204.993195 
	C14.236901,214.543976 13.460027,224.323074 12.016037,234.849991 
	C11.676983,237.755508 10.956385,240.674988 11.062128,243.564224 
	C11.653159,259.713013 12.443971,275.854492 13.027534,292.706451 
	C13.407122,293.804688 13.786709,294.902954 14.024058,296.661865 
	C14.071442,297.107361 14.118825,297.552856 14.037825,298.811462 
	C15.025054,303.384674 15.746691,308.035400 17.053810,312.515289 
	C19.934536,322.388275 23.110573,332.175140 26.029284,342.756958 
	C33.487926,363.031555 43.240192,382.165710 56.166534,399.451691 
	C64.151825,410.130188 73.320526,419.923737 82.209793,430.728821 
	C91.896530,439.074310 100.979774,448.289001 111.425369,455.541473 
	C123.997498,464.270447 137.727798,471.331238 151.293243,479.756012 
	C157.582657,482.372498 163.715790,485.494415 170.194839,487.497498 
	C182.677429,491.356720 195.355606,494.583313 208.109467,498.526733 
	C208.109467,498.526733 208.464310,498.851135 208.464310,498.851135 
	C208.464310,498.851135 208.942078,498.795898 209.617935,498.967865 
	C210.078232,498.923157 210.538528,498.878448 211.827164,498.981995 
	C221.329453,500.319794 230.805206,502.519714 240.339645,502.813141 
	C259.265503,503.395599 278.272217,503.796204 297.823059,499.978577 
	C312.837585,495.976196 328.052429,492.592865 342.816345,487.815887 
	C361.582123,481.744049 378.930267,472.301361 395.113922,461.154266 
	C414.804382,447.591614 433.186249,432.266022 447.472015,412.848175 
	C457.093536,399.770172 466.660126,386.493835 474.600311,372.377594 
	C484.062134,355.556122 491.519165,337.616028 495.169128,318.462646 
	C497.789093,304.714355 499.821198,290.854065 502.834412,276.558350 
	C503.024719,257.103516 503.572845,237.681931 500.129669,218.337311 
	C497.184784,201.792511 493.800903,185.456131 486.995728,169.197159 
	C476.150726,139.421936 459.291290,113.356255 437.809845,89.316605 
	C436.013672,87.517235 434.328094,85.588715 432.403076,83.939774 
	C421.255646,74.391060 410.369354,64.495255 398.747772,55.558189 
	C391.788879,50.206753 383.649963,46.389801 375.733185,41.220737 
	C368.582306,37.714970 361.611481,33.758080 354.236359,30.814039 
	C344.320374,26.855732 334.092346,23.679102 323.292633,19.776733 
	C313.541870,17.812004 303.791138,15.847276 293.684753,13.228565 
	C292.456818,13.207812 291.228882,13.187060 289.219055,13.019075 
z"/>
<path fill="#F1C548" opacity="1.000000" stroke="none" 
	d="
M13.166519,291.998444 
	C12.443971,275.854492 11.653159,259.713013 11.062128,243.564224 
	C10.956385,240.674988 11.676983,237.755508 12.415449,234.348557 
	C14.228780,232.712509 15.764524,231.699799 17.039169,230.425842 
	C88.227013,159.277252 159.396790,88.110580 230.533447,16.910826 
	C231.901260,15.541790 232.852783,13.756824 233.998535,12.165920 
	C248.716782,12.094473 263.434998,12.011354 278.153320,11.962971 
	C280.631470,11.954823 283.110077,12.096715 285.717529,12.858226 
	C279.148041,19.947788 272.332214,26.230740 265.771301,32.769417 
	C237.628586,60.816647 209.625870,89.004692 181.415588,116.983559 
	C175.137985,123.209656 169.992371,131.001877 160.746155,133.627045 
	C160.406540,133.723450 160.242752,134.439117 159.529938,134.906693 
	C148.613785,134.964157 138.157700,135.211990 127.718849,134.893951 
	C122.992142,134.749924 121.779060,136.441772 121.913254,140.888779 
	C122.193291,150.168335 121.986458,159.462616 121.530304,168.797684 
	C111.275108,169.105682 111.889069,167.332657 111.886406,178.190445 
	C111.886200,179.012558 111.579056,180.038406 111.955795,180.617401 
	C112.961617,182.163193 114.262505,183.516968 115.337471,185.317169 
	C113.888191,188.781342 112.120148,191.766998 111.301697,194.993515 
	C109.883621,200.583847 109.053703,206.323364 107.582733,212.001129 
	C104.655029,213.305206 101.597290,214.079300 99.667534,215.991638 
	C73.454926,241.967560 47.431927,268.134796 21.232420,294.124023 
	C19.399529,295.942200 16.545429,296.730927 14.166207,297.998352 
	C14.118825,297.552856 14.071442,297.107361 14.393461,296.207031 
	C16.960337,293.340118 15.766767,292.370178 13.166519,291.998444 
z"/>
<path fill="#EBB33D" opacity="1.000000" stroke="none" 
	d="
M487.114960,169.959091 
	C493.800903,185.456131 497.184784,201.792511 500.129669,218.337311 
	C503.572845,237.681931 503.024719,257.103516 502.107025,276.809509 
	C499.726532,278.067291 497.794128,278.793610 496.461304,280.121704 
	C466.261566,310.214600 436.110443,340.356476 406.034332,370.572937 
	C404.624664,371.989197 403.993225,374.180084 402.542603,376.065094 
	C398.439026,376.065063 394.792114,376.010162 391.175781,375.490204 
	C391.194031,370.709839 391.165710,366.394531 391.171936,362.079285 
	C391.220551,328.388580 391.275787,294.697906 391.641418,260.920807 
	C393.467499,259.557922 395.083466,258.383911 396.479675,256.989807 
	C423.912872,229.597351 451.279907,202.138306 478.810425,174.844162 
	C481.020599,172.652969 484.321136,171.561554 487.114960,169.959091 
z"/>
<path fill="#F2C849" opacity="1.000000" stroke="none" 
	d="
M233.558929,12.093658 
	C232.852783,13.756824 231.901260,15.541790 230.533447,16.910826 
	C159.396790,88.110580 88.227013,159.277252 17.039169,230.425842 
	C15.764524,231.699799 14.228780,232.712509 12.490424,233.922791 
	C13.460027,224.323074 14.236901,214.543976 16.152189,204.993195 
	C20.594433,182.841507 28.477833,161.809357 39.100178,141.910767 
	C48.221889,124.823318 59.162266,108.968231 71.984833,94.303734 
	C87.893684,76.109604 106.146767,60.854301 126.509331,48.075527 
	C144.505829,36.781612 163.438522,27.288082 184.145920,22.025627 
	C198.710342,18.324308 213.451111,15.312428 228.134186,12.088601 
	C229.724167,11.739507 231.454239,12.028424 233.558929,12.093658 
z"/>
<path fill="#E9AE3B" opacity="1.000000" stroke="none" 
	d="
M402.999329,376.010223 
	C403.993225,374.180084 404.624664,371.989197 406.034332,370.572937 
	C436.110443,340.356476 466.261566,310.214600 496.461304,280.121704 
	C497.794128,278.793610 499.726532,278.067291 501.747589,277.052185 
	C499.821198,290.854065 497.789093,304.714355 495.169128,318.462646 
	C491.519165,337.616028 484.062134,355.556122 474.600311,372.377594 
	C466.660126,386.493835 457.093536,399.770172 447.472015,412.848175 
	C433.186249,432.266022 414.804382,447.591614 395.113922,461.154266 
	C378.930267,472.301361 361.582123,481.744049 342.816345,487.815887 
	C328.052429,492.592865 312.837585,495.976196 297.495575,499.579071 
	C299.299194,497.432373 301.595245,495.850464 303.536835,493.913330 
	C334.122070,463.398193 364.686584,432.862061 395.147949,402.223419 
	C396.903534,400.457642 397.734711,397.772797 399.434204,395.438293 
	C401.231781,394.759399 403.769531,394.155090 403.768097,393.556763 
	C403.754150,387.707367 403.316467,381.858917 402.999329,376.010223 
z"/>
<path fill="#EFBF44" opacity="1.000000" stroke="none" 
	d="
M81.957947,430.114594 
	C73.320526,419.923737 64.151825,410.130188 56.166534,399.451691 
	C43.240192,382.165710 33.487926,363.031555 26.420704,342.439941 
	C28.897829,341.225494 31.494272,340.842651 32.993557,339.354462 
	C60.941776,311.613220 88.740784,283.721649 116.651398,255.942352 
	C118.318314,254.283249 120.659210,253.301331 122.757095,252.467987 
	C122.837326,293.937897 122.846954,334.944092 122.409546,376.023071 
	C109.859291,376.343414 109.857475,376.343414 109.874039,388.732819 
	C109.876015,390.209991 109.668129,391.747864 110.017258,393.142487 
	C110.243027,394.044281 111.306274,394.736420 111.965012,395.850342 
	C110.812042,397.763916 109.877029,399.534882 108.532921,400.904327 
	C101.450302,408.120575 94.165077,415.140350 87.174812,422.443359 
	C85.066040,424.646454 83.676773,427.538239 81.957947,430.114594 
z"/>
<path fill="#EBB23C" opacity="1.000000" stroke="none" 
	d="
M398.996094,395.515686 
	C397.734711,397.772797 396.903534,400.457642 395.147949,402.223419 
	C364.686584,432.862061 334.122070,463.398193 303.536835,493.913330 
	C301.595245,495.850464 299.299194,497.432373 297.082977,499.506683 
	C278.272217,503.796204 259.265503,503.395599 240.339645,502.813141 
	C230.805206,502.519714 221.329453,500.319794 211.518188,498.601562 
	C243.238831,466.214691 275.291748,434.231445 307.234192,402.138214 
	C308.962128,400.402100 309.764435,397.744659 311.460693,395.441376 
	C340.947937,395.416351 369.972015,395.466003 398.996094,395.515686 
z"/>
<path fill="#EDB840" opacity="1.000000" stroke="none" 
	d="
M487.055359,169.578125 
	C484.321136,171.561554 481.020599,172.652969 478.810425,174.844162 
	C451.279907,202.138306 423.912872,229.597351 396.479675,256.989807 
	C395.083466,258.383911 393.467499,259.557922 391.564270,260.457245 
	C391.133911,252.405350 391.093170,244.730621 391.402557,237.102707 
	C393.216705,237.920227 394.676147,239.327011 396.145569,239.337509 
	C399.930267,239.364624 404.187592,239.736725 407.386169,238.181686 
	C411.235596,236.310181 410.941742,231.796341 409.914520,227.921600 
	C409.028564,224.579849 407.916504,221.298035 406.939880,217.594620 
	C404.159546,206.445847 401.343811,195.692154 398.935486,184.841370 
	C400.265686,183.100189 401.911316,181.491348 401.993500,179.806274 
	C402.510925,169.197189 402.396118,169.191589 392.012817,168.300583 
	C392.006897,160.735641 391.999817,153.622498 391.997742,146.509369 
	C391.994476,135.304520 391.995911,135.304520 381.161804,134.535522 
	C382.362518,133.801117 383.451996,132.963181 384.419952,133.085678 
	C391.710449,134.008255 396.572083,130.074997 401.257355,125.301826 
	C411.473541,114.893967 421.817780,104.610603 432.201294,94.369278 
	C433.937439,92.656883 436.134552,91.411850 438.118652,89.950851 
	C459.291290,113.356255 476.150726,139.421936 487.055359,169.578125 
z"/>
<path fill="#EDB940" opacity="1.000000" stroke="none" 
	d="
M82.083862,430.421692 
	C83.676773,427.538239 85.066040,424.646454 87.174812,422.443359 
	C94.165077,415.140350 101.450302,408.120575 108.532921,400.904327 
	C109.877029,399.534882 110.812042,397.763916 112.427971,395.773041 
	C137.670029,395.342010 162.419952,395.283112 187.169800,395.302124 
	C203.112335,395.314392 219.054779,395.441071 234.968140,395.844727 
	C233.695206,397.879456 232.650696,399.784485 231.177765,401.262634 
	C207.493790,425.030853 183.792831,448.782562 159.975967,472.417389 
	C157.345123,475.028107 153.980835,476.899750 150.956726,479.114197 
	C137.727798,471.331238 123.997498,464.270447 111.425369,455.541473 
	C100.979774,448.289001 91.896530,439.074310 82.083862,430.421692 
z"/>
<path fill="#ECB53E" opacity="1.000000" stroke="none" 
	d="
M151.124985,479.435120 
	C153.980835,476.899750 157.345123,475.028107 159.975967,472.417389 
	C183.792831,448.782562 207.493790,425.030853 231.177765,401.262634 
	C232.650696,399.784485 233.695206,397.879456 235.431335,395.770447 
	C260.948273,395.417267 285.972931,395.466675 310.997589,395.516083 
	C309.764435,397.744659 308.962128,400.402100 307.234192,402.138214 
	C275.291748,434.231445 243.238831,466.214691 211.104019,498.527435 
	C210.538528,498.878448 210.078232,498.923157 209.141525,498.727539 
	C208.456848,498.298767 208.219376,498.160431 207.952682,498.072235 
	C195.355606,494.583313 182.677429,491.356720 170.194839,487.497498 
	C163.715790,485.494415 157.582657,482.372498 151.124985,479.435120 
z"/>
<path fill="#EDBD44" opacity="1.000000" stroke="none" 
	d="
M437.964233,89.633728 
	C436.134552,91.411850 433.937439,92.656883 432.201294,94.369278 
	C421.817780,104.610603 411.473541,114.893967 401.257355,125.301826 
	C396.572083,130.074997 391.710449,134.008255 384.419952,133.085678 
	C383.451996,132.963181 382.362518,133.801117 380.694702,134.571945 
	C364.355530,134.995331 348.650909,135.041046 332.695129,134.847382 
	C331.992737,133.717636 331.430481,132.865662 331.107422,131.931015 
	C327.606812,121.803848 320.540314,118.386772 309.924835,118.515312 
	C271.956543,118.975067 233.979782,118.733040 196.372375,118.571213 
	C208.495987,118.197525 220.253418,118.009102 232.477386,117.858459 
	C254.556747,117.924843 276.170502,118.049683 297.781067,117.842209 
	C300.096405,117.819977 302.923431,116.397163 304.618408,114.719925 
	C327.544678,92.033463 350.324738,69.199089 373.085815,46.346359 
	C374.320282,45.106880 375.067444,43.382042 376.041443,41.883133 
	C383.649963,46.389801 391.788879,50.206753 398.747772,55.558189 
	C410.369354,64.495255 421.255646,74.391060 432.403076,83.939774 
	C434.328094,85.588715 436.013672,87.517235 437.964233,89.633728 
z"/>
<path fill="#F0C145" opacity="1.000000" stroke="none" 
	d="
M375.887329,41.551933 
	C375.067444,43.382042 374.320282,45.106880 373.085815,46.346359 
	C350.324738,69.199089 327.544678,92.033463 304.618408,114.719925 
	C302.923431,116.397163 300.096405,117.819977 297.781067,117.842209 
	C276.170502,118.049683 254.556747,117.924843 232.551010,117.540848 
	C233.523666,115.538727 234.767853,113.770813 236.272797,112.263222 
	C264.227539,84.259430 292.257690,56.330570 320.098785,28.214489 
	C322.083527,26.210178 322.729706,22.880407 323.998260,20.166939 
	C334.092346,23.679102 344.320374,26.855732 354.236359,30.814039 
	C361.611481,33.758080 368.582306,37.714970 375.887329,41.551933 
z"/>
<path fill="#F0C346" opacity="1.000000" stroke="none" 
	d="
M323.645447,19.971836 
	C322.729706,22.880407 322.083527,26.210178 320.098785,28.214489 
	C292.257690,56.330570 264.227539,84.259430 236.272797,112.263222 
	C234.767853,113.770813 233.523666,115.538727 232.084473,117.503067 
	C220.253418,118.009102 208.495987,118.197525 196.023758,118.690903 
	C190.327942,120.328514 186.899902,123.425667 184.738419,128.080566 
	C183.627090,130.473846 182.288345,132.761520 180.581268,135.069641 
	C173.405792,134.983643 166.701401,134.924911 159.997040,134.866196 
	C160.242752,134.439117 160.406540,133.723450 160.746155,133.627045 
	C169.992371,131.001877 175.137985,123.209656 181.415588,116.983559 
	C209.625870,89.004692 237.628586,60.816647 265.771301,32.769417 
	C272.332214,26.230740 279.148041,19.947788 285.944702,13.216166 
	C287.101593,12.929801 288.160309,12.974439 289.690918,13.411892 
	C291.410950,16.041582 292.684509,17.011866 294.040375,13.882549 
	C303.791138,15.847276 313.541870,17.812004 323.645447,19.971836 
z"/>
<path fill="#F1C346" opacity="1.000000" stroke="none" 
	d="
M122.686485,252.004303 
	C120.659210,253.301331 118.318314,254.283249 116.651398,255.942352 
	C88.740784,283.721649 60.941776,311.613220 32.993557,339.354462 
	C31.494272,340.842651 28.897829,341.225494 26.489113,342.059998 
	C23.110573,332.175140 19.934536,322.388275 17.053810,312.515289 
	C15.746691,308.035400 15.025054,303.384674 14.102016,298.404907 
	C16.545429,296.730927 19.399529,295.942200 21.232420,294.124023 
	C47.431927,268.134796 73.454926,241.967560 99.667534,215.991638 
	C101.597290,214.079300 104.655029,213.305206 107.488708,212.335785 
	C107.485786,214.770203 107.182526,216.870773 106.586479,219.181946 
	C105.319649,222.363968 103.982880,225.273972 103.466698,228.322891 
	C102.870232,231.845947 102.834900,235.306076 106.008530,238.261063 
	C111.291611,243.180161 116.055618,239.815491 121.305222,238.018372 
	C121.985512,238.040146 122.374359,238.046707 122.808762,238.512451 
	C122.798378,243.315857 122.742432,247.660080 122.686485,252.004303 
z"/>
<path fill="#F1C548" opacity="1.000000" stroke="none" 
	d="
M293.862549,13.555557 
	C292.684509,17.011866 291.410950,16.041582 290.081879,13.485508 
	C291.228882,13.187060 292.456818,13.207812 293.862549,13.555557 
z"/>
<path fill="#F1C346" opacity="1.000000" stroke="none" 
	d="
M13.097027,292.352448 
	C15.766767,292.370178 16.960337,293.340118 14.464580,295.876678 
	C13.786709,294.902954 13.407122,293.804688 13.097027,292.352448 
z"/>
<path fill="#EBB23C" opacity="1.000000" stroke="none" 
	d="
M208.031067,498.299500 
	C208.219376,498.160431 208.456848,498.298767 208.803589,498.641541 
	C208.942078,498.795898 208.464310,498.851135 208.464310,498.851135 
	C208.464310,498.851135 208.109467,498.526733 208.031067,498.299500 
z"/>
<path fill="#545B66" opacity="1.000000" stroke="none" 
	d="
M392.013947,168.752411 
	C402.396118,169.191589 402.510925,169.197189 401.993500,179.806274 
	C401.911316,181.491348 400.265686,183.100189 398.647675,184.757812 
	C397.557587,184.690659 397.162720,184.609985 396.414368,184.395508 
	C389.667694,184.348923 383.274414,184.436127 376.531677,184.484009 
	C375.716431,184.486313 375.250641,184.527924 374.348633,184.454956 
	C358.829498,184.296555 343.746521,184.198395 328.663727,184.225449 
	C315.746124,184.248611 302.828796,184.415222 289.556702,184.480499 
	C288.729553,184.484619 288.257080,184.526642 287.349609,184.453369 
	C266.687775,184.414688 246.460907,184.491272 225.883514,184.512268 
	C225.061371,184.479691 224.589737,184.502731 223.653717,184.401291 
	C216.943008,184.338409 210.696671,184.399994 204.105103,184.517609 
	C203.305527,184.661789 202.851181,184.749954 202.002899,184.652588 
	C194.457703,184.361771 187.305923,184.142624 180.155289,184.175629 
	C166.517899,184.238571 152.881149,184.445358 138.892395,184.521896 
	C138.065643,184.475906 137.590607,184.500458 136.652069,184.400787 
	C129.870483,184.354126 123.552422,184.431702 116.930321,184.560211 
	C116.232895,184.723114 115.839500,184.835083 115.446114,184.947067 
	C114.262505,183.516968 112.961617,182.163193 111.955795,180.617401 
	C111.579056,180.038406 111.886200,179.012558 111.886406,178.190445 
	C111.889069,167.332657 111.275108,169.105682 121.992180,168.882828 
	C136.935822,168.947571 150.968246,168.974014 165.469269,169.005280 
	C226.958435,169.007065 287.979004,169.004044 349.468262,168.998032 
	C363.962616,168.914154 377.988281,168.833282 392.013947,168.752411 
z"/>
<path fill="#F1755D" opacity="1.000000" stroke="none" 
	d="
M165.000671,169.000458 
	C150.968246,168.974014 136.935822,168.947571 122.441528,168.835983 
	C121.986458,159.462616 122.193291,150.168335 121.913254,140.888779 
	C121.779060,136.441772 122.992142,134.749924 127.718849,134.893951 
	C138.157700,135.211990 148.613785,134.964157 159.529938,134.906693 
	C166.701401,134.924911 173.405792,134.983643 180.536743,135.422226 
	C175.982773,146.503769 171.002243,157.205444 165.827942,168.066650 
	C165.423019,168.484283 165.211853,168.742371 165.000671,169.000458 
z"/>
<path fill="#FFFEFC" opacity="1.000000" stroke="none" 
	d="
M115.337471,185.317169 
	C115.839500,184.835083 116.232895,184.723114 117.354233,184.678925 
	C124.398354,184.801376 130.714523,184.856018 137.031342,185.320175 
	C134.602020,196.475296 132.172073,207.220917 129.314453,217.972168 
	C121.550941,218.308975 114.215111,218.640152 106.879272,218.971344 
	C107.182526,216.870773 107.485786,214.770203 107.883072,212.334976 
	C109.053703,206.323364 109.883621,200.583847 111.301697,194.993515 
	C112.120148,191.766998 113.888191,188.781342 115.337471,185.317169 
z"/>
<path fill="#DBDFE4" opacity="1.000000" stroke="none" 
	d="
M122.757095,252.467987 
	C122.742432,247.660080 122.798378,243.315857 122.891434,238.239471 
	C122.952843,237.318771 122.977135,237.130264 123.166611,236.662018 
	C124.516724,234.589172 125.701668,232.796051 126.963379,231.371658 
	C128.924149,239.503174 134.823990,242.914459 141.803345,239.270416 
	C145.330902,237.428635 147.778519,233.518417 150.779785,230.957886 
	C152.060486,238.074280 154.265366,239.651031 160.756256,240.106964 
	C167.393082,240.573181 170.490845,235.974838 174.356323,232.228302 
	C177.455124,239.983353 184.032913,242.844955 190.698990,238.885513 
	C193.507217,237.217514 195.427734,234.055008 197.919800,231.916473 
	C200.892273,238.877518 203.121750,240.193726 210.255112,240.040115 
	C216.451370,239.906693 219.156723,235.653976 221.743317,231.320953 
	C223.060516,236.455246 225.986038,239.449783 230.908768,240.238495 
	C237.322205,241.266068 241.574677,238.158142 244.937195,233.025452 
	C252.402649,244.720673 267.483673,241.259308 268.879974,230.349228 
	C271.354492,237.363083 275.348053,240.564529 281.194519,240.482010 
	C286.802460,240.402832 290.242126,237.474609 292.553131,231.236298 
	C295.262299,236.866638 298.868225,240.151169 305.404114,240.150421 
	C311.689209,240.149704 314.180634,236.390564 316.480530,231.834106 
	C319.345428,237.451813 323.538177,240.539032 329.607727,240.452301 
	C335.184021,240.372635 338.173615,236.890121 340.094299,232.163483 
	C341.788239,233.968124 343.163086,235.610840 344.658478,237.135284 
	C348.401733,240.951248 353.111145,240.587509 357.611511,239.461395 
	C361.956573,238.374146 362.980499,234.544281 363.503754,230.813171 
	C364.934357,232.836288 365.899597,234.832382 367.383240,236.306915 
	C371.022339,239.923767 375.492645,241.374756 380.540924,239.962311 
	C384.963623,238.724899 386.608795,235.233826 387.323547,231.245758 
	C388.711639,233.342178 389.882019,235.199036 391.052399,237.055893 
	C391.093170,244.730621 391.133911,252.405350 391.251831,260.543640 
	C391.275787,294.697906 391.220551,328.388580 391.171936,362.079285 
	C391.165710,366.394531 391.194031,370.709839 390.892395,375.567383 
	C390.389374,376.159943 390.200348,376.210236 389.548981,376.170471 
	C379.730804,376.049103 370.374969,376.017853 360.982819,375.519989 
	C360.946472,337.848175 360.946472,300.642975 360.946472,263.446472 
	C336.408905,263.446472 312.688965,263.446472 288.445465,263.446472 
	C288.445465,265.711700 288.448029,267.678894 288.445068,269.646088 
	C288.391663,305.102966 288.337616,340.559814 287.795471,376.017395 
	C235.030441,376.019257 182.753632,376.017517 130.476822,376.031982 
	C128.318787,376.032562 126.160767,376.184204 123.715462,376.189331 
	C123.237648,376.058929 123.047112,376.004608 122.856583,375.950317 
	C122.846954,334.944092 122.837326,293.937897 122.757095,252.467987 
M253.237961,329.839813 
	C253.198059,312.528687 253.161865,295.217590 253.116364,277.906464 
	C253.098862,271.244934 252.226196,270.291290 245.750549,270.284882 
	C219.947891,270.259399 194.145157,270.260498 168.342499,270.283844 
	C161.773514,270.289795 160.920364,271.206360 160.889053,277.816528 
	C160.805450,295.457489 160.722763,313.098419 159.864410,330.751129 
	C159.249252,331.631226 158.634094,332.511322 158.018906,333.391388 
	C158.954254,333.958313 159.889587,334.525208 160.899933,336.003845 
	C160.907364,338.498352 160.901306,340.992950 160.924942,343.487305 
	C160.980881,349.388214 161.687729,350.144440 167.544037,350.164398 
	C178.353622,350.201233 189.163406,350.176086 199.973114,350.175903 
	C215.605606,350.175659 231.238770,350.094299 246.870163,350.224976 
	C251.305557,350.262024 253.373199,348.622772 253.120758,344.070740 
	C252.955399,341.089203 253.146729,338.087891 253.956314,335.035583 
	C254.633957,334.228790 255.311584,333.421997 255.989227,332.615204 
	C255.114990,331.988708 254.240738,331.362213 253.237961,329.839813 
z"/>
<path fill="#545B66" opacity="1.000000" stroke="none" 
	d="
M390.011353,376.260529 
	C390.200348,376.210236 390.389374,376.159943 390.861816,376.032471 
	C394.792114,376.010162 398.439026,376.065063 402.542633,376.065094 
	C403.316467,381.858917 403.754150,387.707367 403.768097,393.556763 
	C403.769531,394.155090 401.231781,394.759399 399.434204,395.438293 
	C369.972015,395.466003 340.947937,395.416351 311.460693,395.441376 
	C285.972931,395.466675 260.948273,395.417267 235.460434,395.442139 
	C219.054779,395.441071 203.112335,395.314392 187.169800,395.302124 
	C162.419952,395.283112 137.670029,395.342010 112.457184,395.445190 
	C111.306274,394.736420 110.243027,394.044281 110.017258,393.142487 
	C109.668129,391.747864 109.876015,390.209991 109.874039,388.732819 
	C109.857475,376.343414 109.859291,376.343414 122.409546,376.023071 
	C123.047112,376.004608 123.237648,376.058929 124.078751,376.380615 
	C126.215828,376.771057 127.702309,377.001526 129.188843,377.001801 
	C214.341476,377.018555 299.494110,377.020782 384.646759,376.984192 
	C386.435059,376.983398 388.223145,376.512238 390.011353,376.260529 
z"/>
<path fill="#F1755D" opacity="1.000000" stroke="none" 
	d="
M392.012817,168.300598 
	C377.988281,168.833282 363.962616,168.914154 349.320923,168.796188 
	C348.464203,168.367111 348.223480,168.136871 347.938538,167.554031 
	C342.911682,156.496536 337.928986,145.791641 332.946320,135.086761 
	C348.650909,135.041046 364.355530,134.995331 380.527222,134.913177 
	C391.995911,135.304520 391.994476,135.304520 391.997742,146.509369 
	C391.999817,153.622498 392.006897,160.735641 392.012817,168.300598 
z"/>
<path fill="#FFFEFD" opacity="1.000000" stroke="none" 
	d="
M396.767822,184.529297 
	C397.162720,184.609985 397.557587,184.690659 398.240295,184.854919 
	C401.343811,195.692154 404.159546,206.445847 406.514587,217.600098 
	C398.765930,217.992004 391.478027,217.983337 384.077454,217.595978 
	C381.629913,206.423737 379.294983,195.630157 377.431946,184.822601 
	C384.191803,184.715500 390.479828,184.622391 396.767822,184.529297 
z"/>
<path fill="#F0F0EC" opacity="1.000000" stroke="none" 
	d="
M384.190094,217.974670 
	C391.478027,217.983337 398.765930,217.992004 406.479126,217.995193 
	C407.916504,221.298035 409.028564,224.579849 409.914520,227.921600 
	C410.941742,231.796341 411.235596,236.310181 407.386169,238.181686 
	C404.187592,239.736725 399.930267,239.364624 396.145569,239.337509 
	C394.676147,239.327011 393.216705,237.920227 391.402557,237.102707 
	C389.882019,235.199036 388.711639,233.342178 387.212830,230.871246 
	C385.887817,226.510925 384.891235,222.764648 383.963715,218.756104 
	C384.085236,218.320786 384.137665,218.147736 384.190094,217.974670 
z"/>
<path fill="#42474F" opacity="1.000000" stroke="none" 
	d="
M332.695129,134.847382 
	C337.928986,145.791641 342.911682,156.496536 347.471924,167.584290 
	C286.706909,167.947144 226.364304,167.927124 166.021698,167.907104 
	C171.002243,157.205444 175.982773,146.503769 181.007843,135.449509 
	C182.288345,132.761520 183.627090,130.473846 184.738419,128.080566 
	C186.899902,123.425667 190.327942,120.328514 195.657593,118.876160 
	C233.979782,118.733040 271.956543,118.975067 309.924835,118.515312 
	C320.540314,118.386772 327.606812,121.803848 331.107422,131.931015 
	C331.430481,132.865662 331.992737,133.717636 332.695129,134.847382 
z"/>
<path fill="#F0F0EB" opacity="1.000000" stroke="none" 
	d="
M126.886612,231.002930 
	C125.701668,232.796051 124.516724,234.589172 122.869766,236.676788 
	C121.943092,237.315247 121.478432,237.659195 121.013779,238.003143 
	C116.055618,239.815491 111.291611,243.180161 106.008530,238.261063 
	C102.834900,235.306076 102.870232,231.845947 103.466698,228.322891 
	C103.982880,225.273972 105.319649,222.363968 106.586487,219.181946 
	C114.215111,218.640152 121.550941,218.308975 129.386658,218.225464 
	C129.922668,218.644882 129.958817,218.816666 129.771408,219.292847 
	C128.660767,223.399124 127.773689,227.201035 126.886612,231.002930 
z"/>
<path fill="#EBC564" opacity="1.000000" stroke="none" 
	d="
M121.305222,238.018372 
	C121.478432,237.659195 121.943092,237.315247 122.704590,236.956512 
	C122.977135,237.130264 122.952843,237.318771 122.845886,237.780273 
	C122.374359,238.046707 121.985512,238.040146 121.305222,238.018372 
z"/>
<path fill="#DF7F69" opacity="1.000000" stroke="none" 
	d="
M139.244141,184.592422 
	C152.881149,184.445358 166.517899,184.238571 180.155289,184.175629 
	C187.305923,184.142624 194.457703,184.361771 201.938187,185.123993 
	C201.258759,196.512787 200.250092,207.244644 199.141266,218.236755 
	C198.977173,218.671555 198.913239,218.846115 198.390930,219.014252 
	C190.661667,219.009048 183.390778,219.010300 176.060516,218.755554 
	C175.951126,218.331665 175.901108,218.163757 175.939499,217.585129 
	C177.561874,206.589844 179.095825,196.005280 180.669250,185.148407 
	C172.801804,185.148407 165.862411,185.148407 158.460083,185.126129 
	C151.746155,184.933365 145.495148,184.762894 139.244141,184.592422 
z"/>
<path fill="#F2765F" opacity="1.000000" stroke="none" 
	d="
M287.784576,184.568665 
	C288.257080,184.526642 288.729553,184.484619 289.561859,184.543091 
	C289.921661,184.643570 290.007141,184.736557 289.867310,185.207687 
	C290.445312,196.461639 291.163177,207.244461 291.798187,218.286407 
	C291.664032,218.719467 291.612762,218.893417 291.121704,219.066223 
	C283.448303,219.038925 276.214661,219.012802 268.859589,218.803009 
	C268.649231,218.325195 268.475952,218.094421 268.286438,217.467453 
	C268.232300,206.392761 268.110046,195.777618 268.456085,185.136047 
	C275.211121,184.929276 281.497833,184.748962 287.784576,184.568665 
z"/>
<path fill="#F2765F" opacity="1.000000" stroke="none" 
	d="
M224.118088,184.525757 
	C224.589737,184.502731 225.061371,184.479691 226.244446,184.635254 
	C233.292297,184.925705 239.628754,185.037552 245.983063,185.602539 
	C245.819733,196.683777 245.638550,207.311874 245.345688,218.203140 
	C245.157684,218.640991 245.081360,218.815643 244.536285,219.001404 
	C236.847137,219.029907 229.626709,219.047318 222.315659,218.791229 
	C222.150284,218.340805 222.075546,218.163864 222.092133,217.572372 
	C222.800980,206.393097 223.418488,195.628372 224.072891,184.783142 
	C224.109772,184.702652 224.118088,184.525757 224.118088,184.525757 
z"/>
<path fill="#F2775F" opacity="1.000000" stroke="none" 
	d="
M384.077454,217.595978 
	C384.137665,218.147736 384.085236,218.320786 383.502258,218.758926 
	C375.789825,219.038147 368.607941,219.052261 361.310608,218.894577 
	C361.133636,218.449127 361.019531,218.199509 360.865326,217.573730 
	C358.931000,206.498718 356.984192,195.823898 355.502747,185.125732 
	C362.240356,184.924774 368.512604,184.747147 374.784851,184.569519 
	C375.250641,184.527924 375.716431,184.486313 376.535278,184.566193 
	C376.888367,184.687653 376.960052,184.836594 376.960052,184.836594 
	C379.294983,195.630157 381.629913,206.423737 384.077454,217.595978 
z"/>
<path fill="#F2775F" opacity="1.000000" stroke="none" 
	d="
M138.892395,184.521896 
	C145.495148,184.762894 151.746155,184.933365 158.419434,185.505096 
	C156.935699,196.597397 155.029709,207.288467 153.022949,218.157791 
	C152.871826,218.612152 152.754013,218.855576 152.060333,219.060318 
	C144.366287,219.032349 137.180634,219.010391 129.994980,218.988434 
	C129.958817,218.816666 129.922668,218.644882 129.814331,218.219818 
	C132.172073,207.220917 134.602020,196.475296 137.068527,185.227173 
	C137.105087,184.724670 137.115585,184.525009 137.115585,184.525009 
	C137.590607,184.500458 138.065643,184.475906 138.892395,184.521896 
z"/>
<path fill="#FFFEFE" opacity="1.000000" stroke="none" 
	d="
M224.036011,184.863647 
	C223.418488,195.628372 222.800980,206.393097 221.623444,217.577866 
	C213.789413,217.990768 206.515427,217.983643 199.241425,217.976517 
	C200.250092,207.244644 201.258759,196.512787 202.332123,185.309509 
	C202.851181,184.749954 203.305527,184.661789 204.499878,184.644897 
	C211.505264,184.765335 217.770645,184.814499 224.036011,184.863647 
z"/>
<path fill="#626267" opacity="1.000000" stroke="none" 
	d="
M165.827942,168.066650 
	C226.364304,167.927124 286.706909,167.947144 347.516113,167.936890 
	C348.223480,168.136871 348.464203,168.367111 348.852234,168.799179 
	C287.979004,169.004044 226.958435,169.007065 165.469269,169.005280 
	C165.211853,168.742371 165.423019,168.484283 165.827942,168.066650 
z"/>
<path fill="#DF7F69" opacity="1.000000" stroke="none" 
	d="
M374.348633,184.454956 
	C368.512604,184.747147 362.240356,184.924774 355.041626,185.003571 
	C347.074982,184.993622 340.034790,185.082504 332.529480,185.133850 
	C325.201721,185.150528 318.339050,185.204727 311.061005,185.115601 
	C303.766113,184.893692 296.886627,184.815125 290.007141,184.736557 
	C290.007141,184.736557 289.921661,184.643570 289.916504,184.580994 
	C302.828796,184.415222 315.746124,184.248611 328.663727,184.225449 
	C343.746521,184.198395 358.829498,184.296555 374.348633,184.454956 
z"/>
<path fill="#DF7F69" opacity="1.000000" stroke="none" 
	d="
M245.965195,185.149399 
	C239.628754,185.037552 233.292297,184.925705 226.594940,184.690857 
	C246.460907,184.491272 266.687775,184.414688 287.349609,184.453384 
	C281.497833,184.748962 275.211121,184.929276 267.997131,185.019760 
	C260.035004,185.003098 253.000107,185.076248 245.965195,185.149399 
z"/>
<path fill="#DF7F69" opacity="1.000000" stroke="none" 
	d="
M377.431946,184.822601 
	C376.960052,184.836594 376.888367,184.687653 376.884766,184.605484 
	C383.274414,184.436127 389.667694,184.348923 396.414368,184.395508 
	C390.479828,184.622391 384.191803,184.715500 377.431946,184.822601 
z"/>
<path fill="#DF7F69" opacity="1.000000" stroke="none" 
	d="
M224.072891,184.783142 
	C217.770645,184.814499 211.505264,184.765335 204.845123,184.588898 
	C210.696671,184.399994 216.943008,184.338409 223.653717,184.401276 
	C224.118088,184.525757 224.109772,184.702652 224.072891,184.783142 
z"/>
<path fill="#DF7F69" opacity="1.000000" stroke="none" 
	d="
M136.652069,184.400787 
	C137.115585,184.525009 137.105087,184.724670 137.067902,184.817657 
	C130.714523,184.856018 124.398354,184.801376 117.658272,184.627991 
	C123.552422,184.431702 129.870483,184.354126 136.652069,184.400787 
z"/>
<path fill="#42474F" opacity="1.000000" stroke="none" 
	d="
M288.283691,376.016693 
	C288.337616,340.559814 288.391663,305.102966 288.445068,269.646088 
	C288.448029,267.678894 288.445465,265.711700 288.445465,263.446472 
	C312.688965,263.446472 336.408905,263.446472 360.946472,263.446472 
	C360.946472,300.642975 360.946472,337.848175 360.513214,375.526733 
	C336.147858,376.005585 312.215790,376.011139 288.283691,376.016693 
M326.499939,313.642029 
	C334.581635,313.642029 342.663361,313.642029 350.740540,313.642029 
	C350.740540,299.632996 350.740540,286.548065 350.740540,273.289124 
	C333.170532,273.289124 315.940369,273.289124 298.423523,273.289124 
	C298.423523,286.694000 298.423523,299.770813 298.423523,313.641479 
	C307.612122,313.641479 316.556000,313.641479 326.499939,313.642029 
z"/>
<path fill="#545B66" opacity="1.000000" stroke="none" 
	d="
M253.178314,335.095428 
	C253.146729,338.087891 252.955399,341.089203 253.120758,344.070740 
	C253.373199,348.622772 251.305557,350.262024 246.870163,350.224976 
	C231.238770,350.094299 215.605606,350.175659 199.973114,350.175903 
	C189.163406,350.176086 178.353622,350.201233 167.544037,350.164398 
	C161.687729,350.144440 160.980881,349.388214 160.924942,343.487305 
	C160.901306,340.992950 160.907364,338.498352 161.342072,335.526428 
	C192.248917,335.064484 222.713623,335.079956 253.178314,335.095428 
z"/>
<path fill="#586471" opacity="1.000000" stroke="none" 
	d="
M160.639709,330.739380 
	C160.722763,313.098419 160.805450,295.457489 160.889053,277.816528 
	C160.920364,271.206360 161.773514,270.289795 168.342499,270.283844 
	C194.145157,270.260498 219.947891,270.259399 245.750549,270.284882 
	C252.226196,270.291290 253.098862,271.244934 253.116364,277.906464 
	C253.161865,295.217590 253.198059,312.528687 252.892151,330.329498 
	C250.706848,330.665649 248.867371,330.512115 247.079575,329.865814 
	C247.147385,313.230164 247.149414,297.087250 247.193695,280.944427 
	C247.200958,278.294342 247.300064,276.062988 243.450363,276.080475 
	C219.153030,276.191010 194.854874,276.165466 170.557220,276.097412 
	C167.720535,276.089447 166.775101,277.197693 166.793839,279.938080 
	C166.908783,296.744415 166.923599,313.551422 166.612228,330.512848 
	C164.381714,330.691467 162.510727,330.715424 160.639709,330.739380 
z"/>
<path fill="#F0F1EE" opacity="1.000000" stroke="none" 
	d="
M245.005035,218.990295 
	C245.081360,218.815643 245.157684,218.640991 245.783417,218.214600 
	C253.627991,217.950912 260.923157,217.938965 268.218323,217.927017 
	C268.475952,218.094421 268.649231,218.325195 268.748932,219.251083 
	C268.762177,223.254532 268.764587,226.626236 268.767029,229.997925 
	C267.483673,241.259308 252.402649,244.720673 244.999268,232.708115 
	C244.874969,231.814224 245.009445,231.403320 245.244446,230.892349 
	C245.483246,230.511902 245.443848,230.255768 245.197800,229.564850 
	C245.114227,225.733994 245.059631,222.362152 245.005035,218.990295 
z"/>
<path fill="#42474F" opacity="1.000000" stroke="none" 
	d="
M160.252075,330.745239 
	C162.510727,330.715424 164.381714,330.691467 167.082611,330.531921 
	C194.284286,330.383759 220.656097,330.371155 247.027893,330.358582 
	C248.867371,330.512115 250.706848,330.665649 252.956421,330.777466 
	C254.240738,331.362213 255.114990,331.988708 255.989227,332.615204 
	C255.311584,333.421997 254.633957,334.228790 253.567322,335.065491 
	C222.713623,335.079956 192.248917,335.064484 161.304565,335.070557 
	C159.889587,334.525208 158.954254,333.958313 158.018921,333.391418 
	C158.634094,332.511322 159.249252,331.631226 160.252075,330.745239 
z"/>
<path fill="#F0F0ED" opacity="1.000000" stroke="none" 
	d="
M199.141266,218.236755 
	C206.515427,217.983643 213.789413,217.990768 221.532104,217.992416 
	C222.075546,218.163864 222.150284,218.340805 222.203415,219.235992 
	C221.991440,223.625488 221.801071,227.296738 221.610703,230.967987 
	C219.156723,235.653976 216.451370,239.906693 210.255112,240.040115 
	C203.121750,240.193726 200.892273,238.877518 197.952759,231.514420 
	C198.161575,226.852051 198.505447,222.936371 198.849319,219.020676 
	C198.913239,218.846115 198.977173,218.671555 199.141266,218.236755 
z"/>
<path fill="#F0F0ED" opacity="1.000000" stroke="none" 
	d="
M291.561462,219.067383 
	C291.612762,218.893417 291.664032,218.719467 292.275330,218.282532 
	C300.108734,217.958817 307.382172,217.898102 314.768188,218.023773 
	C314.942841,218.495056 315.038086,218.768372 315.105530,219.459473 
	C315.442108,223.786835 315.839722,227.684830 316.237366,231.582840 
	C314.180634,236.390564 311.689209,240.149704 305.404114,240.150421 
	C298.868225,240.151169 295.262299,236.866638 292.501160,230.781525 
	C292.033295,226.393143 291.797363,222.730255 291.561462,219.067383 
z"/>
<path fill="#F0F0ED" opacity="1.000000" stroke="none" 
	d="
M152.568710,219.066330 
	C152.754013,218.855576 152.871826,218.612152 153.483231,218.164597 
	C161.313217,217.994049 168.582153,217.994949 175.851089,217.995850 
	C175.901108,218.163757 175.951126,218.331665 175.928955,219.138336 
	C175.287781,223.835800 174.718796,227.894470 174.149811,231.953140 
	C170.490845,235.974838 167.393082,240.573181 160.756256,240.106964 
	C154.265366,239.651031 152.060486,238.074280 150.818665,230.564117 
	C151.384354,226.192688 151.976532,222.629517 152.568710,219.066330 
z"/>
<path fill="#F0F0ED" opacity="1.000000" stroke="none" 
	d="
M360.852844,217.973907 
	C361.019531,218.199509 361.133636,218.449127 361.319336,219.328827 
	C362.053772,223.472870 362.664001,227.010880 363.274231,230.548889 
	C362.980499,234.544281 361.956573,238.374146 357.611511,239.461395 
	C353.111145,240.587509 348.401733,240.951248 344.658478,237.135284 
	C343.163086,235.610840 341.788239,233.968124 340.038849,231.757278 
	C339.100067,227.098938 338.480988,223.062576 337.912781,218.763779 
	C338.006592,218.328293 338.049500,218.155258 338.555237,217.987701 
	C346.296295,217.986755 353.574585,217.980331 360.852844,217.973907 
z"/>
<path fill="#F05846" opacity="1.000000" stroke="none" 
	d="
M337.861877,219.026230 
	C338.480988,223.062576 339.100067,227.098938 339.774658,231.541504 
	C338.173615,236.890121 335.184021,240.372635 329.607727,240.452301 
	C323.538177,240.539032 319.345428,237.451813 316.480530,231.834106 
	C315.839722,227.684830 315.442108,223.786835 315.563141,219.459061 
	C323.341827,219.028275 330.601837,219.027252 337.861877,219.026230 
z"/>
<path fill="#F05846" opacity="1.000000" stroke="none" 
	d="
M174.356323,232.228302 
	C174.718796,227.894470 175.287781,223.835800 175.988327,219.394333 
	C183.390778,219.010300 190.661667,219.009048 198.390930,219.014252 
	C198.505447,222.936371 198.161575,226.852051 197.784760,231.169800 
	C195.427734,234.055008 193.507217,237.217514 190.698990,238.885513 
	C184.032913,242.844955 177.455124,239.983353 174.356323,232.228302 
z"/>
<path fill="#F05846" opacity="1.000000" stroke="none" 
	d="
M152.060333,219.060318 
	C151.976532,222.629517 151.384354,226.192688 150.753296,230.149643 
	C147.778519,233.518417 145.330902,237.428635 141.803345,239.270416 
	C134.823990,242.914459 128.924149,239.503174 126.963379,231.371658 
	C127.773689,227.201035 128.660767,223.399124 129.771408,219.292831 
	C137.180634,219.010391 144.366287,219.032349 152.060333,219.060318 
z"/>
<path fill="#F05746" opacity="1.000000" stroke="none" 
	d="
M363.503723,230.813171 
	C362.664001,227.010880 362.053772,223.472870 361.434784,219.500610 
	C368.607941,219.052261 375.789825,219.038147 383.433167,219.021210 
	C384.891235,222.764648 385.887817,226.510925 386.995117,230.631714 
	C386.608795,235.233826 384.963623,238.724899 380.540924,239.962311 
	C375.492645,241.374756 371.022339,239.923767 367.383240,236.306915 
	C365.899597,234.832382 364.934357,232.836288 363.503723,230.813171 
z"/>
<path fill="#F05645" opacity="1.000000" stroke="none" 
	d="
M291.121704,219.066223 
	C291.797363,222.730255 292.033295,226.393143 292.321167,230.510803 
	C290.242126,237.474609 286.802460,240.402832 281.194519,240.482010 
	C275.348053,240.564529 271.354492,237.363083 268.879944,230.349228 
	C268.764587,226.626236 268.762177,223.254532 268.870392,219.434753 
	C276.214661,219.012802 283.448303,219.038925 291.121704,219.066223 
z"/>
<path fill="#F05645" opacity="1.000000" stroke="none" 
	d="
M221.743317,231.320953 
	C221.801071,227.296738 221.991440,223.625488 222.294052,219.509476 
	C229.626709,219.047318 236.847137,219.029907 244.536285,219.001404 
	C245.059631,222.362152 245.114227,225.733994 245.119385,229.801987 
	C245.069916,230.498123 245.143906,230.992416 245.143921,230.992416 
	C245.009445,231.403320 244.874969,231.814224 244.678436,232.542450 
	C241.574677,238.158142 237.322205,241.266068 230.908768,240.238495 
	C225.986038,239.449783 223.060516,236.455246 221.743317,231.320953 
z"/>
<path fill="#727373" opacity="1.000000" stroke="none" 
	d="
M287.795471,376.017395 
	C312.215790,376.011139 336.147858,376.005585 360.549561,375.993347 
	C370.374969,376.017853 379.730804,376.049103 389.548981,376.170471 
	C388.223145,376.512238 386.435059,376.983398 384.646759,376.984192 
	C299.494110,377.020782 214.341476,377.018555 129.188843,377.001801 
	C127.702309,377.001526 126.215828,376.771057 124.366028,376.456726 
	C126.160767,376.184204 128.318787,376.032562 130.476822,376.031982 
	C182.753632,376.017517 235.030441,376.019257 287.795471,376.017395 
z"/>
<path fill="#FFFDFD" opacity="1.000000" stroke="none" 
	d="
M175.939499,217.585129 
	C168.582153,217.994949 161.313217,217.994049 153.584015,217.986328 
	C155.029709,207.288467 156.935699,196.597397 158.882355,185.527374 
	C165.862411,185.148407 172.801804,185.148407 180.669250,185.148407 
	C179.095825,196.005280 177.561874,206.589844 175.939499,217.585129 
z"/>
<path fill="#FFFDFD" opacity="1.000000" stroke="none" 
	d="
M314.655579,217.837402 
	C307.382172,217.898102 300.108734,217.958817 292.358185,218.023407 
	C291.163177,207.244461 290.445312,196.461639 289.867310,185.207687 
	C296.886627,184.815125 303.766113,184.893692 311.084961,185.554108 
	C312.568085,196.703110 313.611816,207.270264 314.655579,217.837402 
z"/>
<path fill="#FFFFFF" opacity="1.000000" stroke="none" 
	d="
M268.286438,217.467453 
	C260.923157,217.938965 253.627991,217.950912 245.895096,217.951416 
	C245.638550,207.311874 245.819733,196.683777 245.983063,185.602539 
	C253.000107,185.076248 260.035004,185.003098 267.528870,185.046204 
	C268.110046,195.777618 268.232300,206.392761 268.286438,217.467453 
z"/>
<path fill="#FFFEFD" opacity="1.000000" stroke="none" 
	d="
M360.865326,217.573730 
	C353.574585,217.980331 346.296295,217.986755 338.415009,217.607040 
	C336.206207,206.537735 334.600403,195.854553 332.994629,185.171387 
	C340.034790,185.082504 347.074982,184.993622 354.576294,185.026917 
	C356.984192,195.823898 358.931000,206.498718 360.865326,217.573730 
z"/>
<path fill="#F2775F" opacity="1.000000" stroke="none" 
	d="
M332.529480,185.133850 
	C334.600403,195.854553 336.206207,206.537735 337.952209,217.601562 
	C338.049500,218.155258 338.006592,218.328293 337.912781,218.763779 
	C330.601837,219.027252 323.341827,219.028275 315.624207,219.029694 
	C315.038086,218.768372 314.942841,218.495056 314.768188,218.023773 
	C313.611816,207.270264 312.568085,196.703110 311.500366,185.697449 
	C318.339050,185.204727 325.201721,185.150528 332.529480,185.133850 
z"/>
<path fill="#5EB3E3" opacity="1.000000" stroke="none" 
	d="
M325.999939,313.641754 
	C316.556000,313.641479 307.612122,313.641479 298.423523,313.641479 
	C298.423523,299.770813 298.423523,286.694000 298.423523,273.289124 
	C315.940369,273.289124 333.170532,273.289124 350.740540,273.289124 
	C350.740540,286.548065 350.740540,299.632996 350.740540,313.642029 
	C342.663361,313.642029 334.581635,313.642029 325.999939,313.641754 
z"/>
<path fill="#5EB5E5" opacity="1.000000" stroke="none" 
	d="
M247.079575,329.865814 
	C220.656097,330.371155 194.284286,330.383759 167.442108,330.377258 
	C166.923599,313.551422 166.908783,296.744415 166.793839,279.938080 
	C166.775101,277.197693 167.720535,276.089447 170.557220,276.097412 
	C194.854874,276.165466 219.153030,276.191010 243.450363,276.080475 
	C247.300064,276.062988 247.200958,278.294342 247.193695,280.944427 
	C247.149414,297.087250 247.147385,313.230164 247.079575,329.865814 
z"/>
<path fill="#DBDFE4" opacity="1.000000" stroke="none" 
	d="
M245.244431,230.892349 
	C245.143906,230.992416 245.069916,230.498123 245.148346,230.260986 
	C245.443848,230.255768 245.483246,230.511902 245.244431,230.892349 
z"/>
</svg>